<?xml version="1.0" encoding="utf-8"?>
<!DOCTYPE svg PUBLIC "-//W3C//DTD SVG 1.1//EN" "http://www.w3.org/Graphics/SVG/1.1/DTD/svg11.dtd">
<svg fill="#29323D" version="1.1" xmlns="http://www.w3.org/2000/svg" xmlns:xlink="http://www.w3.org/1999/xlink" x="0px" y="0px" viewBox="0 0 1000 1000" enable-background="new 0 0 1000 1000" xml:space="preserve">
<g><path d="M874.2,658.1c10.4-14.8,15.6-14.1,15.6,2.2v111.4c0,54.9-38.6,105.1-115.8,150.3C696.7,967.4,605.4,990,500,990c-103.9,0-194.9-22.6-272.8-67.9c-78-45.3-116.9-95.4-116.9-150.3V660.4c0-5.9,1.5-9.7,4.5-11.1s6.7,1.5,11.1,8.9c23.8,38.6,70.2,70.5,139.2,95.8c69,25.2,147.4,37.9,235,37.9s165.9-12.6,235-37.9C804,728.7,850.4,696.7,874.2,658.1L874.2,658.1 M876.4,375.3c5.9-11.9,10.4-11.9,13.4,0v129.2c0,50.5-37.9,92.8-113.6,127c-75.7,34.2-167.8,51.2-276.2,51.2c-106.9,0-198.6-17.1-275.1-51.2c-76.5-34.2-114.7-76.5-114.7-127V375.3c0-14.8,5.2-14.8,15.6,0c22.3,34.2,68.3,62,138.1,83.5s148.5,32.3,236.1,32.3s166.3-10.8,236.1-32.3C805.9,437.3,852.7,409.4,876.4,375.3L876.4,375.3 M500,10c106.9,0,198.6,14.5,275.1,43.4c76.5,29,114.7,63.5,114.7,103.6v71.3c0,43.1-38.2,79.8-114.7,110.3C698.6,369,606.9,384.2,500,384.2c-106.9,0-198.6-15.2-275.1-45.7c-76.5-30.4-114.7-67.2-114.7-110.3V157c0-40.1,38.2-74.6,114.7-103.6C301.4,24.5,393.1,10,500,10L500,10"/></g>
</svg>
